<?xml version="1.0" standalone="no"?>
<svg viewBox="0 0 200 200" xmlns="http://www.w3.org/2000/svg">
  <path fill="#FF0066" d="M40.3,-59.5C51.6,-55.5,59.5,-43.2,61,-30.6C62.5,-18,57.5,-5.2,54.4,6.9C51.2,19.1,50,30.6,44.7,41.4C39.5,52.2,30.4,62.2,19.8,63.6C9.2,65,-2.8,57.7,-13.4,51.8C-24.1,46,-33.3,41.4,-45,35C-56.7,28.7,-70.9,20.4,-78.9,7.4C-86.9,-5.6,-88.7,-23.5,-81.7,-36.7C-74.7,-49.9,-58.8,-58.4,-43.8,-60.7C-28.7,-62.9,-14.3,-58.9,0.1,-59.1C14.5,-59.2,29.1,-63.5,40.3,-59.5Z" transform="translate(100 100)" />
</svg>
